<?xml version="1.0" standalone="no"?>
<!DOCTYPE svg PUBLIC "-//W3C//DTD SVG 20010904//EN"
 "http://www.w3.org/TR/2001/REC-SVG-20010904/DTD/svg10.dtd">
<svg version="1.0" xmlns="http://www.w3.org/2000/svg"
 width="700.000000pt" height="700.000000pt" viewBox="0 0 700.000000 700.000000"
 preserveAspectRatio="xMidYMid meet">
<metadata>
Created by potrace 1.11, written by Peter Selinger 2001-2013
</metadata>
<g transform="translate(0.000000,700.000000) scale(0.100000,-0.100000)"
fill="#000000" stroke="none">
<path d="M1472 6289 c-31 -12 -50 -32 -62 -64 -6 -17 -10 -282 -10 -726 0
-774 -2 -752 63 -782 32 -16 163 -17 1679 -17 1448 0 1646 2 1672 15 16 9 61
46 100 84 39 38 92 89 117 113 82 78 390 371 475 453 123 119 124 150 6 265
-82 80 -420 402 -487 465 -22 20 -72 68 -111 106 -39 38 -84 76 -100 84 -25
13 -231 15 -1674 14 -986 0 -1654 -4 -1668 -10z"/>
<path d="M1463 4285 c-65 -28 -63 1 -63 -785 0 -653 1 -714 17 -741 37 -62 -8
-59 1005 -59 861 0 925 1 949 18 15 9 98 85 185 169 166 159 347 331 499 476
l90 85 0 52 0 52 -106 101 c-120 115 -410 392 -473 451 -22 21 -72 69 -111
106 -38 37 -80 72 -91 78 -16 8 -277 12 -945 11 -767 0 -929 -2 -956 -14z"/>
<path d="M1472 2289 c-31 -12 -50 -32 -62 -64 -6 -17 -10 -282 -10 -727 0
-776 -2 -750 65 -782 30 -14 200 -16 1673 -16 1061 0 1650 4 1667 10 14 5 65
48 113 94 48 46 108 103 133 127 91 85 363 345 450 429 132 128 132 152 -5
285 -80 78 -326 312 -490 468 -28 27 -76 73 -107 103 -31 29 -69 60 -85 69
-26 13 -223 15 -1674 14 -986 0 -1654 -4 -1668 -10z"/>
</g>
</svg>
